<?xml version="1.0" standalone="no"?>
<!DOCTYPE svg PUBLIC "-//W3C//DTD SVG 20010904//EN"
 "http://www.w3.org/TR/2001/REC-SVG-20010904/DTD/svg10.dtd">
<svg version="1.0" xmlns="http://www.w3.org/2000/svg"
 width="465.000000pt" height="465.000000pt" viewBox="0 0 465.000000 465.000000"
 preserveAspectRatio="xMidYMid meet">
<metadata>
Created by potrace 1.14, written by Peter Selinger 2001-2017
</metadata>
<g transform="translate(0.000000,465.000000) scale(0.100000,-0.100000)"
fill="#000000" stroke="none">
<path d="M2306 4622 c-3 -5 1 -9 9 -9 8 0 12 4 9 9 -3 4 -7 8 -9 8 -2 0 -6 -4
-9 -8z"/>
<path d="M2260 4613 c0 -7 -7 -10 -17 -6 -12 5 -14 3 -8 -8 7 -11 6 -12 -6 -2
-12 10 -20 9 -37 -3 -12 -8 -27 -12 -32 -9 -6 4 -9 1 -8 -7 2 -7 -4 -13 -12
-13 -8 0 -19 -6 -23 -13 -5 -7 -13 -10 -18 -6 -5 3 -8 1 -7 -4 2 -6 -1 -10 -5
-10 -5 -1 -15 -9 -24 -19 -9 -11 -12 -12 -8 -3 4 8 -3 3 -15 -12 -12 -16 -26
-28 -31 -28 -6 0 -22 -12 -37 -27 -15 -15 -19 -21 -9 -13 9 7 19 11 22 9 2 -3
-9 -13 -26 -24 -16 -11 -27 -26 -24 -32 2 -7 -3 -13 -11 -13 -8 0 -12 -5 -9
-10 3 -6 -1 -13 -10 -16 -9 -4 -14 -13 -11 -20 3 -8 2 -13 -2 -13 -19 3 -25
-2 -12 -11 10 -6 11 -10 3 -10 -7 0 -13 -7 -13 -15 0 -8 -6 -15 -12 -15 -9 0
-9 -3 -3 -8 6 -4 10 -16 10 -27 0 -11 3 -30 7 -42 5 -16 3 -23 -5 -23 -8 0 -7
-4 3 -10 12 -8 12 -10 1 -10 -11 0 -10 -5 3 -25 12 -18 13 -23 2 -19 -10 4
-12 -1 -9 -19 3 -14 0 -28 -6 -31 -6 -4 -11 -1 -11 6 0 9 -3 9 -10 -2 -8 -12
-10 -12 -10 5 0 15 -3 17 -9 7 -4 -8 -12 -13 -17 -13 -5 1 -9 -4 -9 -9 0 -6
-6 -15 -14 -19 -11 -7 -10 -11 5 -20 17 -9 17 -10 2 -11 -18 0 -21 -31 -5 -46
4 -4 7 -12 7 -18 0 -6 -4 -4 -10 4 -6 10 -9 5 -8 -18 1 -18 4 -32 8 -32 4 0 7
-8 7 -17 0 -35 3 -44 13 -38 6 4 7 -1 3 -11 -4 -12 -3 -15 5 -10 8 5 10 2 6
-8 -4 -10 -1 -16 7 -16 7 0 9 -3 6 -7 -4 -3 -1 -13 6 -21 10 -13 9 -15 -3 -8
-9 4 -8 1 3 -7 9 -8 17 -18 17 -23 0 -5 11 -17 24 -28 14 -10 22 -24 19 -32
-3 -8 1 -14 8 -14 11 0 11 -3 -1 -10 -11 -7 -11 -10 -2 -10 8 0 5 -8 -8 -22
-11 -12 -18 -28 -16 -35 3 -7 1 -13 -4 -13 -6 0 -10 -9 -10 -20 0 -11 -5 -20
-11 -20 -5 0 -7 -4 -4 -10 3 -5 2 -10 -4 -10 -6 0 -15 -10 -21 -22 -11 -22
-10 -22 4 -4 9 11 16 15 16 8 0 -6 -9 -17 -20 -25 -11 -8 -17 -17 -13 -20 3
-4 1 -7 -6 -7 -7 0 -9 -4 -6 -10 3 -5 1 -10 -5 -10 -6 0 -8 -5 -5 -10 4 -6 1
-18 -7 -27 -11 -14 -11 -16 2 -8 12 6 13 5 3 -6 -7 -7 -13 -17 -13 -22 0 -4 6
-5 13 -1 8 5 8 3 -2 -9 -7 -9 -11 -29 -8 -43 4 -20 -2 -33 -21 -51 -14 -13
-31 -22 -38 -19 -7 3 -15 -2 -18 -11 -4 -8 -13 -13 -21 -9 -8 3 -15 0 -15 -6
0 -6 -3 -8 -7 -5 -3 4 -13 1 -21 -5 -8 -7 -22 -13 -31 -13 -9 0 -15 -5 -14
-11 1 -7 -6 -10 -17 -7 -12 3 -20 0 -20 -6 0 -7 -8 -11 -17 -9 -10 2 -17 -2
-16 -9 2 -7 -4 -10 -12 -6 -9 3 -25 -3 -35 -12 -11 -10 -20 -14 -20 -10 0 5
-7 0 -16 -11 -8 -10 -13 -13 -9 -7 4 9 1 11 -9 7 -9 -3 -13 -10 -10 -15 3 -5
-2 -6 -10 -3 -10 4 -16 1 -16 -7 0 -7 -3 -9 -6 -6 -4 3 -16 1 -28 -5 -11 -7
-24 -11 -28 -10 -5 1 -8 -5 -8 -14 0 -13 -3 -14 -14 -5 -10 8 -15 9 -18 1 -2
-6 -12 -13 -23 -14 -11 -2 -19 -9 -17 -17 2 -9 -1 -9 -14 2 -10 8 -15 9 -11 3
8 -14 -20 -27 -35 -17 -7 4 -8 1 -3 -7 6 -10 4 -12 -8 -7 -10 3 -17 2 -17 -3
0 -9 -39 -26 -52 -22 -5 1 -8 -3 -8 -10 0 -6 -3 -8 -6 -5 -4 4 -19 -2 -34 -13
-32 -23 -44 -25 -35 -7 4 6 0 4 -8 -6 -9 -10 -19 -19 -24 -20 -4 -1 -7 -6 -5
-11 2 -5 -3 -4 -11 3 -12 9 -16 8 -21 -4 -3 -9 -10 -13 -16 -10 -5 3 -10 1
-10 -5 0 -6 -4 -9 -9 -6 -9 6 -61 -15 -61 -26 0 -3 -13 -9 -30 -13 -16 -4 -33
-11 -36 -17 -5 -7 -2 -8 7 -3 11 7 12 6 2 -7 -7 -8 -9 -19 -5 -24 4 -4 -1 -2
-11 5 -16 13 -17 12 -8 -12 9 -22 8 -25 -6 -20 -13 5 -15 1 -11 -19 4 -21 2
-25 -11 -20 -9 3 -13 2 -9 -3 4 -4 3 -14 -4 -22 -9 -11 -7 -12 8 -7 14 6 13 2
-6 -14 -21 -18 -23 -23 -10 -32 11 -7 11 -10 2 -10 -7 0 -10 -4 -7 -10 3 -5 0
-10 -7 -10 -9 0 -9 -3 2 -10 12 -7 12 -10 1 -10 -7 0 -11 -6 -8 -15 4 -8 2
-17 -3 -20 -6 -4 -10 -15 -10 -26 0 -11 -4 -18 -10 -14 -5 3 -8 -9 -6 -29 3
-22 0 -34 -8 -33 -6 1 -11 -11 -10 -30 0 -18 -3 -30 -8 -27 -5 3 -5 10 -2 16
4 7 2 8 -5 4 -6 -4 -9 -12 -6 -17 4 -5 0 -9 -7 -9 -9 0 -9 -3 2 -10 9 -6 10
-10 3 -10 -6 0 -10 -9 -8 -20 2 -11 -1 -19 -7 -17 -6 1 -12 -6 -13 -16 -3 -15
-1 -16 13 -5 12 9 12 6 -2 -10 -11 -12 -15 -22 -10 -22 5 0 2 -5 -6 -10 -13
-8 -12 -10 4 -10 16 0 16 -2 -5 -21 -13 -11 -18 -17 -10 -13 11 5 13 3 8 -10
-4 -10 -7 -20 -7 -22 0 -3 -6 -2 -12 2 -9 6 -9 3 0 -9 8 -9 10 -22 6 -29 -4
-7 -8 -24 -8 -39 -1 -15 -4 -31 -8 -35 -4 -4 -3 -13 3 -20 7 -8 6 -14 -2 -20
-8 -5 -9 -3 -4 6 5 9 4 11 -4 6 -9 -6 -9 -11 -1 -21 8 -10 8 -15 0 -20 -6 -4
-7 -12 -2 -18 11 -16 7 -60 -7 -65 -8 -3 -8 -9 0 -24 7 -13 7 -18 1 -14 -7 4
-9 -9 -8 -34 2 -23 -1 -43 -6 -46 -5 -3 -7 -12 -4 -20 3 -8 0 -14 -6 -14 -7 0
-7 -4 0 -13 7 -8 7 -18 2 -27 -7 -11 -4 -17 8 -22 16 -6 16 -7 -1 -7 -15 -1
-16 -4 -6 -23 10 -18 9 -20 -7 -14 -18 6 -18 5 0 -9 14 -11 16 -15 5 -15 -10
-1 -9 -5 5 -15 18 -13 18 -15 3 -15 -16 0 -16 -2 -1 -27 15 -27 15 -27 -1 -8
-14 16 -17 17 -12 3 3 -10 1 -20 -5 -24 -7 -4 -2 -14 13 -26 13 -11 18 -16 10
-12 -11 5 -13 1 -8 -22 3 -16 4 -24 1 -17 -4 10 -8 10 -19 0 -7 -7 -10 -16 -7
-22 3 -5 -1 -4 -10 3 -13 10 -18 10 -24 1 -5 -8 -3 -9 6 -4 9 5 11 4 6 -4 -6
-9 -11 -9 -21 -1 -9 8 -14 6 -19 -6 -5 -13 -10 -14 -18 -6 -13 13 -61 -15 -51
-31 3 -6 1 -7 -6 -3 -6 4 -9 12 -6 17 4 5 1 9 -4 9 -6 0 -11 -7 -11 -15 0 -8
-5 -15 -12 -15 -6 0 -20 -8 -30 -17 -11 -10 -19 -13 -18 -8 5 24 -1 27 -16 9
-8 -10 -12 -12 -8 -4 6 12 5 13 -7 4 -8 -5 -28 -10 -45 -10 -21 1 -30 -3 -27
-11 7 -17 -9 -17 -26 -1 -12 11 -13 9 -7 -7 4 -11 4 -16 0 -13 -4 4 -15 3 -25
-3 -13 -7 -19 -6 -19 1 0 6 -5 8 -10 5 -6 -4 -7 -11 -4 -17 4 -6 -2 -5 -15 1
-17 10 -22 9 -27 -4 -5 -12 -9 -13 -20 -4 -12 10 -13 9 -8 -5 4 -11 2 -15 -8
-11 -12 5 -15 -8 -17 -65 l-2 -72 45 3 c27 2 51 -3 62 -12 11 -8 15 -9 10 -1
-9 16 6 16 23 0 11 -11 12 -10 6 2 -8 13 -7 13 8 1 10 -7 17 -9 17 -3 0 6 8 9
17 8 10 -2 24 4 31 13 8 9 10 10 6 2 -4 -9 -2 -12 7 -9 8 3 13 11 11 18 -2 10
1 10 14 -1 12 -9 15 -9 10 -1 -4 7 -1 12 8 12 9 0 16 5 16 12 0 6 3 8 7 5 3
-4 13 -1 21 6 9 6 13 7 9 1 -3 -6 0 -11 8 -11 8 0 12 4 10 8 -3 4 2 9 10 13 8
3 15 0 15 -7 0 -8 4 -6 10 3 5 8 10 10 10 3 0 -6 10 -9 22 -7 13 2 17 2 11 -2
-10 -4 -10 -9 1 -20 8 -7 12 -23 9 -34 -3 -12 0 -20 6 -20 7 0 9 -5 6 -10 -4
-6 -11 -8 -16 -5 -5 3 -6 -1 -3 -10 4 -8 0 -23 -7 -32 -10 -12 -10 -15 -1 -9
6 4 12 3 12 -3 0 -5 -5 -11 -11 -13 -6 -2 -12 -15 -12 -30 -1 -14 -5 -24 -8
-22 -4 2 -10 -12 -13 -31 -6 -32 -15 -40 -39 -36 -5 1 -6 -2 -3 -7 3 -5 -6
-19 -19 -30 -14 -12 -25 -27 -25 -33 0 -5 -4 -7 -10 -4 -9 6 -14 -7 -11 -27 0
-4 -6 -5 -15 -1 -10 4 -17 -2 -21 -16 -3 -11 -9 -18 -14 -15 -8 5 -13 -10 -10
-29 1 -5 -3 -6 -8 -2 -6 3 -19 -3 -31 -15 -11 -11 -27 -20 -35 -20 -8 0 -15
-4 -15 -10 0 -5 -7 -10 -15 -10 -8 0 -15 -7 -15 -16 0 -8 -4 -13 -8 -10 -4 2
-13 -4 -20 -15 -7 -11 -8 -19 -2 -19 5 0 10 5 10 12 0 6 3 8 7 4 5 -4 1 -13
-7 -19 -19 -15 -24 -37 -7 -37 8 0 7 -4 -3 -10 -11 -7 -11 -10 -2 -10 7 0 11
-4 8 -8 -3 -5 13 -18 35 -30 22 -12 37 -16 33 -10 -5 7 2 9 19 6 15 -3 25 -2
22 2 -5 9 32 40 39 33 3 -4 6 -1 6 6 0 7 5 9 10 6 5 -3 10 -2 10 4 0 13 55 42
64 34 3 -4 6 -1 6 5 0 7 6 12 13 12 7 0 18 9 25 21 8 12 19 18 27 15 8 -3 14
-2 12 2 -1 5 10 20 25 34 15 14 25 28 21 31 -7 7 12 11 36 8 7 -2 10 2 7 8 -7
10 12 27 20 18 7 -6 -14 -46 -33 -65 -7 -8 -10 -18 -7 -24 4 -6 3 -8 -3 -5 -5
4 -16 -5 -23 -18 -7 -14 -19 -25 -25 -25 -7 0 -20 -11 -31 -24 -10 -14 -21
-23 -25 -21 -3 3 -14 -4 -24 -15 -10 -11 -23 -17 -29 -13 -6 4 -4 -2 4 -12 8
-10 10 -16 4 -12 -6 3 -16 -5 -22 -19 -10 -20 -9 -26 3 -30 8 -4 12 -10 9 -15
-3 -5 2 -9 10 -9 9 0 16 -8 17 -17 0 -12 2 -13 6 -5 4 10 9 8 21 -5 19 -20 43
-23 54 -8 4 6 13 10 20 10 7 1 12 6 11 12 -1 6 8 10 20 9 12 0 21 4 20 11 -2
7 6 10 17 8 11 -2 20 1 20 6 0 6 4 8 9 5 5 -3 11 3 14 14 4 14 10 18 23 13 13
-5 15 -3 9 7 -6 10 -2 12 18 8 15 -3 24 -1 21 4 -9 14 24 34 62 36 22 2 33 -2
32 -9 -2 -7 9 -13 27 -13 17 -1 33 -5 37 -11 5 -6 8 -5 8 3 0 7 5 10 10 7 6
-3 10 -1 10 4 0 6 6 10 12 8 7 -1 12 4 10 12 -2 8 3 11 13 8 9 -4 15 -1 15 9
0 11 6 14 16 10 8 -3 12 -2 9 3 -3 5 5 17 17 25 12 9 18 16 13 16 -6 0 -2 5 8
11 10 6 14 16 10 22 -3 7 3 4 14 -6 18 -15 25 -17 43 -7 15 8 20 8 16 1 -5 -7
1 -11 14 -11 12 0 18 -4 15 -10 -3 -5 2 -10 12 -11 10 0 13 -3 6 -6 -7 -2 -13
-11 -13 -19 0 -8 6 -14 13 -14 8 0 7 -4 -3 -10 -10 -6 -11 -10 -3 -10 7 0 12
-6 10 -13 -1 -6 3 -11 9 -10 6 1 11 -4 11 -12 0 -8 -4 -12 -9 -9 -13 9 -9 -6
7 -22 11 -12 12 -20 5 -34 -9 -17 -8 -18 7 -13 16 6 16 5 5 -10 -8 -9 -12 -24
-10 -34 2 -10 -3 -24 -12 -31 -8 -8 -10 -11 -3 -8 6 4 14 2 18 -4 3 -5 1 -10
-5 -10 -7 0 -8 -6 -2 -17 5 -10 8 -30 5 -45 -2 -14 1 -30 7 -33 8 -5 7 -11 -1
-21 -8 -10 -8 -14 0 -14 6 0 11 -5 11 -11 0 -5 -6 -7 -13 -4 -6 4 -3 -1 7 -9
18 -15 18 -16 2 -16 -9 0 -14 -5 -11 -10 4 -6 10 -8 15 -5 5 3 5 -7 1 -22 -5
-16 -4 -39 1 -52 8 -22 7 -23 -9 -10 -17 13 -17 12 -4 -4 8 -10 14 -36 14 -58
l-1 -39 1309 0 c915 0 1309 3 1309 11 0 5 -5 7 -12 3 -7 -5 -8 -3 -3 7 12 18
14 49 3 49 -4 0 -7 13 -6 29 1 16 -4 37 -12 47 -9 11 -10 15 -2 10 8 -5 12 1
12 18 0 14 -6 26 -12 26 -10 0 -9 3 1 9 7 5 11 15 9 22 -3 8 -1 26 3 42 5 18
4 27 -4 27 -7 0 -6 4 3 10 11 7 11 10 2 10 -9 0 -10 5 -3 18 6 11 6 24 -1 36
-8 14 -7 17 1 12 6 -4 11 -3 11 3 0 5 -4 12 -10 16 -5 3 -7 12 -3 20 3 10 -1
15 -13 15 -16 0 -17 2 -4 10 13 9 13 10 0 10 -12 0 -12 2 -2 9 11 7 10 9 -3
15 -9 3 -13 11 -9 17 4 7 -1 18 -11 26 -11 7 -13 13 -6 13 7 0 11 10 10 23 -3
28 10 58 33 78 10 9 18 21 18 28 0 6 7 11 15 11 8 0 15 4 15 9 0 10 26 9 36
-2 4 -4 -1 -7 -12 -7 -15 0 -16 -2 -5 -9 8 -5 19 -8 25 -7 6 2 8 1 4 -1 -12
-7 -9 -33 3 -33 5 0 7 -5 4 -10 -3 -5 1 -10 9 -10 9 0 16 -6 16 -13 0 -14 40
-37 65 -37 8 0 15 -4 15 -8 0 -4 17 -9 37 -10 20 -2 44 -8 52 -15 12 -9 13 -9
7 1 -7 12 3 16 34 13 13 -2 13 -1 0 8 -12 9 -12 11 3 17 9 3 14 10 11 15 -3 5
0 9 5 9 10 0 15 -13 12 -32 0 -4 8 -5 19 -3 11 2 20 0 20 -6 0 -5 3 -8 8 -8
17 3 35 -1 29 -7 -7 -8 17 -34 32 -34 6 0 11 -4 11 -9 0 -5 16 -15 35 -22 19
-7 35 -16 35 -19 0 -3 12 -7 28 -8 15 -1 39 -4 55 -6 18 -2 27 1 27 11 0 8 3
12 8 10 4 -3 13 1 20 9 8 9 9 14 2 14 -6 0 -8 5 -5 10 4 6 12 7 18 3 8 -5 8
-2 0 9 -7 8 -10 18 -7 21 3 3 -5 17 -19 31 -14 14 -28 22 -31 19 -3 -4 -6 1
-6 10 0 9 -7 17 -15 17 -7 0 -18 8 -24 18 -5 9 -13 17 -18 17 -4 0 -7 3 -6 7
2 5 -1 8 -5 8 -15 0 -52 37 -45 44 3 3 1 6 -6 6 -7 0 -9 5 -6 10 3 6 1 10 -5
10 -6 0 -9 4 -5 9 3 5 1 12 -4 16 -6 3 -7 13 -4 22 5 12 3 14 -7 8 -8 -5 -11
-4 -6 3 4 6 13 9 21 6 8 -4 13 -10 10 -14 -3 -5 3 -13 12 -19 10 -6 14 -11 9
-11 -5 0 -1 -9 9 -20 10 -11 22 -17 26 -14 5 3 9 0 9 -6 0 -6 7 -18 15 -26 8
-9 15 -13 15 -9 0 4 7 -1 16 -9 8 -9 24 -16 35 -16 11 0 17 -5 14 -10 -3 -5 1
-10 10 -10 9 0 13 -5 10 -10 -3 -5 1 -10 10 -10 9 0 31 -10 48 -22 17 -12 27
-16 22 -8 -5 9 -4 11 3 6 7 -4 12 -14 12 -22 0 -8 4 -13 9 -9 5 3 12 1 16 -5
4 -6 10 -8 15 -5 5 3 12 1 15 -5 5 -8 11 -7 22 1 11 10 16 10 22 0 6 -10 10
-9 14 4 5 11 3 14 -6 10 -6 -4 -3 0 7 9 17 13 17 18 5 33 -9 11 -10 14 -1 9 9
-5 12 2 12 27 0 28 -6 36 -37 54 -21 11 -37 25 -36 31 2 7 -4 9 -14 5 -12 -5
-15 -2 -10 10 7 19 -4 22 -20 6 -9 -9 -10 -7 -6 10 4 14 1 21 -10 21 -8 0 -18
7 -21 16 -3 9 -13 14 -20 11 -10 -4 -13 0 -11 13 2 11 -1 23 -7 26 -7 5 -8 2
-3 -7 8 -12 6 -12 -9 0 -9 8 -15 20 -12 28 3 8 1 11 -4 8 -6 -3 -13 1 -16 9
-3 9 -13 16 -21 16 -10 0 -13 6 -9 16 3 8 2 13 -3 10 -15 -10 -40 19 -46 54
-6 36 -41 73 -60 62 -5 -3 -2 4 8 15 13 15 15 23 7 28 -9 6 -9 10 1 17 11 8
12 11 1 15 -10 4 -9 9 5 20 10 8 13 12 7 9 -7 -3 -15 1 -18 10 -3 8 -2 13 3
10 18 -12 21 27 4 47 -10 11 -12 17 -4 12 8 -4 17 -2 22 6 6 9 9 10 9 2 0 -12
30 -10 52 3 6 4 8 3 5 -3 -4 -6 4 -11 20 -11 15 0 29 -5 31 -11 2 -6 12 -11
23 -11 10 0 19 -4 19 -10 0 -5 7 -10 15 -10 8 0 15 -4 15 -10 0 -5 16 -10 35
-10 19 0 35 -4 35 -8 0 -4 19 -9 41 -11 23 -1 45 -2 48 -3 28 -3 31 6 31 85 0
48 -5 88 -11 94 -7 7 -26 9 -47 6 -24 -4 -33 -3 -28 5 5 8 -4 10 -29 7 -20 -3
-34 -1 -31 3 7 12 -36 12 -51 0 -11 -9 -12 -7 -6 8 6 16 5 17 -9 6 -13 -10
-18 -10 -24 -1 -5 8 -3 9 6 4 9 -5 11 -4 6 3 -4 8 -15 8 -31 2 -18 -7 -23 -6
-19 3 3 9 -8 13 -40 12 -24 0 -42 3 -40 7 2 4 0 9 -6 13 -5 3 -10 0 -10 -7 0
-10 -2 -10 -9 1 -5 8 -16 11 -25 8 -8 -3 -18 -2 -21 3 -3 5 -14 7 -25 5 -12
-2 -18 0 -15 5 3 5 -4 12 -16 15 -17 6 -19 9 -8 17 10 7 8 7 -8 3 -14 -4 -23
-2 -23 4 0 6 -7 11 -16 11 -9 0 -12 5 -8 12 4 6 3 8 -3 5 -6 -4 -21 2 -33 13
-12 11 -27 17 -33 13 -6 -4 -7 -1 -2 7 14 22 15 101 1 93 -6 -3 -6 -1 2 8 15
16 16 33 0 23 -7 -5 -8 -3 -2 7 12 20 14 39 3 39 -6 0 -7 5 -4 10 4 6 10 8 15
5 5 -3 7 4 5 16 -3 13 -10 26 -17 31 -9 5 -10 8 -1 8 15 0 14 60 -1 79 -9 12
-8 13 3 6 11 -6 13 -2 7 19 -4 17 -3 25 3 22 5 -3 7 2 4 13 -3 10 0 22 7 26 8
5 8 11 -1 21 -6 8 -9 17 -6 21 4 3 2 12 -5 20 -8 10 -8 17 1 26 10 9 11 8 6
-8 -6 -16 -5 -17 4 -5 16 22 13 30 -11 31 -17 1 -18 3 -6 6 14 3 15 9 7 30 -8
22 -7 24 8 19 16 -6 16 -6 0 12 -15 16 -15 21 -2 38 8 10 14 24 15 29 0 6 -5
3 -10 -5 -8 -12 -10 -9 -10 12 0 14 6 29 13 31 7 3 6 6 -5 6 -9 1 -20 5 -23
11 -3 5 0 7 8 4 12 -4 14 2 10 30 -3 26 -1 36 9 36 7 1 2 7 -12 15 -14 8 -19
14 -12 15 6 0 12 7 12 16 0 9 -5 12 -12 8 -9 -5 -9 -2 1 9 7 9 9 17 4 17 -5 0
-10 7 -10 15 0 11 4 12 14 3 11 -8 12 -7 7 6 -3 9 -11 16 -18 16 -6 0 -4 5 4
10 8 5 10 10 4 10 -6 0 -16 12 -23 27 -11 24 -10 25 4 13 13 -11 15 -10 9 4
-3 9 -11 16 -16 16 -6 0 -8 9 -5 19 4 15 1 18 -12 13 -14 -5 -14 -4 -1 13 9
11 10 16 3 11 -8 -4 -13 -2 -13 5 0 7 -7 20 -16 30 -12 13 -12 19 -3 25 7 4
10 3 5 -4 -3 -6 -2 -13 3 -16 5 -4 8 2 7 11 -2 10 -8 18 -14 18 -6 0 -14 3
-18 8 -4 4 -2 7 5 7 8 0 7 5 -4 16 -11 11 -13 20 -6 28 15 18 -31 82 -49 71
-4 -2 -7 2 -7 10 0 11 4 12 14 3 11 -8 12 -7 7 6 -3 9 -10 16 -16 16 -5 0 -7
4 -3 9 3 5 0 13 -6 17 -7 4 -9 3 -5 -4 3 -6 2 -13 -3 -16 -11 -7 -9 13 3 32 4
7 4 11 -1 10 -4 -2 -9 1 -10 5 -1 4 -9 15 -18 23 -8 9 -12 20 -9 26 5 7 -4 9
-24 6 -25 -3 -29 -2 -21 8 8 10 6 12 -10 9 -11 -2 -27 3 -36 11 -8 8 -28 16
-44 17 -16 1 -27 5 -25 8 2 4 -8 10 -21 13 -15 4 -23 11 -19 17 4 7 -1 7 -15
0 -17 -9 -21 -9 -19 1 2 7 -3 12 -9 10 -7 -1 -13 2 -13 8 0 5 -5 10 -11 10 -5
0 -7 -5 -3 -12 4 -6 -10 2 -31 18 -22 16 -36 23 -31 17 4 -7 3 -13 -2 -13 -6
0 -13 7 -16 16 -5 13 -9 14 -21 4 -13 -11 -14 -10 -9 4 4 12 1 16 -14 16 -12
0 -24 5 -27 11 -4 6 -13 8 -21 5 -8 -3 -14 -1 -14 5 0 6 -4 7 -10 4 -5 -3 -10
-1 -10 4 0 6 -9 11 -20 11 -11 0 -20 4 -20 9 0 6 -9 8 -20 6 -13 -2 -20 2 -20
11 0 17 -20 19 -20 2 -1 -7 -6 -4 -13 7 -7 11 -18 20 -24 21 -7 1 -22 2 -34 3
-12 0 -17 5 -13 13 5 8 0 9 -14 6 -13 -4 -22 -1 -22 5 0 7 -12 13 -27 14 -15
0 -29 6 -31 12 -2 6 -11 11 -21 11 -9 0 -27 7 -39 16 -17 12 -22 12 -22 2 -1
-8 -6 -5 -16 7 -8 11 -12 25 -9 33 2 7 0 10 -5 7 -13 -8 -13 1 2 28 10 20 10
21 -6 8 -15 -13 -16 -12 -7 12 8 21 7 28 -7 36 -10 6 -12 11 -4 11 13 0 17 40
3 40 -5 0 -11 9 -14 20 -3 13 -1 18 6 13 13 -7 -22 37 -38 49 -6 5 -4 8 5 8 8
1 2 8 -15 16 -16 8 -22 12 -12 9 9 -2 17 0 17 5 0 6 -9 10 -19 10 -18 0 -36
25 -32 44 1 5 -6 3 -15 -5 -12 -9 -15 -9 -10 -1 4 6 3 12 -3 12 -5 0 -13 10
-16 21 -5 15 -10 18 -15 9 -5 -8 -9 -3 -12 14 -4 21 -3 24 9 15 11 -9 12 -8 7
5 -3 9 -11 16 -18 17 -6 0 -2 4 9 9 11 5 14 9 7 9 -7 1 6 19 30 41 24 22 37
40 31 40 -7 0 -13 -5 -13 -12 0 -6 -3 -8 -6 -5 -4 4 -1 14 7 23 15 19 22 47 8
39 -5 -4 -6 1 -3 9 3 9 11 13 18 10 6 -3 2 2 -8 10 -18 15 -18 16 -2 16 10 0
14 5 10 11 -3 6 0 15 7 20 12 8 12 11 -1 19 -10 6 -11 10 -3 10 17 0 12 23 -7
32 -11 5 -10 7 5 7 16 1 17 3 6 10 -15 10 -23 71 -10 71 5 0 6 7 3 15 -4 8 -1
15 6 15 6 0 8 5 5 10 -4 6 -11 8 -16 5 -5 -3 -6 1 -3 9 7 19 -7 21 -25 4 -11
-10 -12 -10 -7 -1 5 9 2 11 -8 7 -9 -3 -13 -11 -9 -18 4 -6 0 -6 -9 2 -10 8
-17 9 -20 2 -1 -5 -9 -1 -16 11 -10 16 -10 19 -1 13 8 -5 11 -2 7 8 -4 8 -2
21 2 28 6 9 3 18 -8 27 -13 9 -13 12 -3 13 11 0 11 3 1 15 -10 12 -10 15 1 15
9 0 10 3 4 8 -12 9 -12 42 -1 61 6 10 5 12 -2 7 -7 -4 -13 -4 -13 1 -1 4 -3
23 -5 41 -2 18 -9 42 -14 53 -6 11 -8 25 -4 32 5 6 -1 5 -11 -3 -10 -8 -16
-10 -12 -4 4 6 -2 22 -13 34 -11 13 -20 27 -20 32 0 4 -4 8 -10 8 -15 0 -60
42 -60 56 0 6 -7 14 -15 18 -8 3 -15 0 -15 -6 0 -6 -8 -1 -19 10 -10 12 -23
22 -28 22 -6 0 -16 7 -23 15 -10 12 -16 13 -28 3 -10 -8 -13 -9 -9 -2 4 7 0
15 -9 18 -10 4 -13 2 -8 -6 8 -13 -12 -3 -39 20 -16 15 -17 14 -11 -4 7 -16 5
-17 -8 -7 -8 7 -18 10 -21 6 -4 -3 -7 0 -7 8 0 11 -2 11 -10 -1 -7 -11 -10
-11 -10 -2 0 8 -5 10 -12 5 -18 -11 -62 -10 -70 2 -5 6 -8 5 -8 -2z m1680
-1944 c15 -28 5 -23 -15 7 -9 15 -12 23 -6 20 6 -4 16 -16 21 -27z m114 -758
c3 -5 -2 -15 -12 -22 -15 -12 -16 -12 -5 2 7 9 10 19 6 22 -3 4 -4 7 0 7 3 0
8 -4 11 -9z m-3507 -397 c-3 -3 -12 -4 -19 -1 -8 3 -5 6 6 6 11 1 17 -2 13 -5z
m4083 -218 c0 -3 -4 -8 -10 -11 -5 -3 -10 -1 -10 4 0 6 5 11 10 11 6 0 10 -2
10 -4z m-370 -126 c0 -5 -2 -10 -4 -10 -3 0 -8 5 -11 10 -3 6 -1 10 4 10 6 0
11 -4 11 -10z"/>
<path d="M540 1909 c0 -5 5 -7 10 -4 6 3 10 8 10 11 0 2 -4 4 -10 4 -5 0 -10
-5 -10 -11z"/>
</g>
</svg>
